<?xml version="1.0" encoding="utf-8"?>
<!-- Generator: Adobe Illustrator 15.0.0, SVG Export Plug-In . SVG Version: 6.00 Build 0)  -->
<!DOCTYPE svg PUBLIC "-//W3C//DTD SVG 1.1//EN" "http://www.w3.org/Graphics/SVG/1.1/DTD/svg11.dtd">
<svg version="1.1" id="Layer_1" xmlns="http://www.w3.org/2000/svg" xmlns:xlink="http://www.w3.org/1999/xlink" x="0px" y="0px"
	 width="1400px" height="619.045px" viewBox="0 0 1400 619.045" enable-background="new 0 0 1400 619.045" xml:space="preserve">
<g>
	<path fill="#FFFFFF" d="M131.197,147.337c20.389,0,37.718,16.823,37.718,37.717v134.051c0,20.387-17.329,37.717-37.718,37.717
		H39.45c-20.898,0-37.716-17.33-37.716-37.717V245.71l61.164-14.271v63.715h44.345v-86.654H39.45
		c-20.898,0-37.716-16.818-37.716-37.717V37.751c0-20.897,16.818-37.716,37.716-37.716h91.747c20.389,0,37.718,16.818,37.718,37.716
		v72.379l-61.672,14.271V61.197H62.897v86.14H131.197z"/>
	<path fill="#FFFFFF" d="M379.062,170.782c0,20.898-17.33,37.717-37.719,37.717h-68.3v148.323h-61.162V0.036h129.462
		c20.389,0,37.719,16.818,37.719,37.716V170.782z M317.39,61.197h-44.347v86.14h44.347V61.197z"/>
	<path fill="#FFFFFF" d="M589.212,51.517V108.6v248.223H527.54V250.805h-44.346v106.017h-61.163V37.751
		c0-20.897,16.819-37.716,37.716-37.716h91.745c20.39,0,37.72,16.818,37.72,37.716V51.517z M527.54,61.197h-44.346v128.446h44.346
		V61.197z"/>
	<path fill="#FFFFFF" d="M737.687,225.323l61.673-14.271v108.053c0,20.387-17.329,37.717-37.721,37.717h-91.745
		c-20.897,0-37.717-17.33-37.717-37.717V37.751c0-20.897,16.819-37.716,37.717-37.716h91.745c20.392,0,37.721,16.818,37.721,37.716
		v72.379l-61.673,14.271V61.197h-44.346v233.956h44.346V225.323z"/>
	<path fill="#FFFFFF" d="M1009.509,295.153v61.669H842.325V0.036h167.184v61.162H903.49v86.14h84.611v61.162H903.49v86.654H1009.509
		z"/>
	<path fill="#FFFFFF" d="M1198.754,295.153v61.669h-146.279V0.036h61.162v295.118H1198.754z"/>
	<path fill="#FFFFFF" d="M1325.929,0.036h62.179l-58.614,206.426v150.361h-61.671V206.461L1209.207,0.036h62.183l27.521,106.016
		L1325.929,0.036z"/>
</g>
<g>
	<path fill="#FFC408" d="M141.814,157.925c20.389,0,37.719,16.823,37.719,37.716v134.052c0,20.388-17.33,37.717-37.719,37.717
		H50.069c-20.898,0-37.718-17.33-37.718-37.717v-73.396l61.164-14.271v63.715h44.346v-86.655H50.069
		c-20.898,0-37.718-16.818-37.718-37.716V48.34c0-20.898,16.819-37.717,37.718-37.717h91.745c20.389,0,37.719,16.819,37.719,37.717
		v72.378l-61.672,14.27V71.786H73.515v86.139H141.814z"/>
	<path fill="#FFC408" d="M389.68,181.37c0,20.898-17.329,37.716-37.718,37.716h-68.3V367.41H222.5V10.623h129.463
		c20.389,0,37.718,16.819,37.718,37.717V181.37z M328.008,71.786h-44.346v86.139h44.346V71.786z"/>
	<path fill="#FFC408" d="M599.83,62.104v57.083V367.41h-61.672V261.393h-44.347V367.41h-61.162V48.34
		c0-20.898,16.818-37.717,37.716-37.717h91.746c20.39,0,37.718,16.819,37.718,37.717V62.104z M538.158,71.786h-44.347v128.445
		h44.347V71.786z"/>
	<path fill="#FFC408" d="M748.305,235.91l61.673-14.27v108.053c0,20.388-17.329,37.717-37.716,37.717h-91.749
		c-20.898,0-37.717-17.33-37.717-37.717V48.34c0-20.898,16.819-37.717,37.717-37.717h91.749c20.387,0,37.716,16.819,37.716,37.717
		v72.378l-61.673,14.27V71.786h-44.349v233.956h44.349V235.91z"/>
	<path fill="#FFC408" d="M1020.126,305.741v61.668H852.947V10.623h167.179v61.163h-106.02v86.139h84.612v61.162h-84.612v86.655
		H1020.126z"/>
	<path fill="#FFC408" d="M1209.375,305.741v61.668h-146.282V10.623h61.162v295.119H1209.375z"/>
	<path fill="#FFC408" d="M1336.549,10.623h62.179l-58.614,206.427v150.36h-61.674V217.05l-58.614-206.427h62.184l27.52,106.017
		L1336.549,10.623z"/>
</g>
<g>
	<path fill="#CC9215" d="M131.194,147.301c20.391,0,37.719,16.824,37.719,37.717V319.07c0,20.388-17.329,37.716-37.719,37.716
		H39.448c-20.897,0-37.716-17.329-37.716-37.716v-73.396l61.162-14.271v63.715h44.345v-86.654H39.448
		c-20.897,0-37.716-16.82-37.716-37.716V37.716C1.732,16.818,18.551,0,39.448,0h91.746c20.391,0,37.719,16.818,37.719,37.716v72.379
		l-61.673,14.271V61.162H62.895v86.139H131.194z M6.32,170.749c0,8.154,3.058,15.8,8.154,21.407l15.291-15.292V31.6L14.474,16.312
		C9.377,21.918,6.32,29.562,6.32,37.716V170.749z M6.32,251.791v67.279c0,8.155,3.058,15.292,8.154,21.409l15.291-15.798v-60.656
		L6.32,251.791z M31.803,259.439L52.7,238.537l-41.793,9.685L31.803,259.439z M39.448,4.589c-8.154,0-15.799,3.054-21.406,8.15
		l15.29,15.295h102.959l15.8-15.807c-5.606-4.585-13.251-7.639-20.898-7.639H39.448z M61.365,152.402L38.43,175.337h98.373
		l15.8-15.291c-6.117-5.101-13.251-7.644-21.408-7.644H61.365z M108.259,300.214H61.365L38.43,323.66h93.274L108.259,300.214z
		 M112.336,59.125v56.577l23.445-23.445V35.679L112.336,59.125z M112.336,297.151l23.445,23.447V184.001l-23.445,22.936V297.151z"/>
	<path fill="#CC9215" d="M379.061,170.749c0,20.896-17.329,37.716-37.72,37.716h-68.299v89.197v59.125h-61.162V0h129.461
		c20.391,0,37.72,16.818,37.72,37.716V170.749z M216.466,8.154v339.973l23.446-23.446V31.6L216.466,8.154z M362.239,12.229
		c-5.607-4.585-13.252-7.639-20.898-7.639H220.033l23.446,23.446h102.959L362.239,12.229z M341.852,175.337l-23.445-22.935h-46.894
		l-22.936,22.935H341.852z M317.387,61.162h-44.346v86.139h44.346V61.162z M322.483,149.339l23.446,23.446V35.679l-23.446,23.445
		V149.339z"/>
	<path fill="#CC9215" d="M589.21,356.787h-61.674V250.771H483.19v106.016h-61.161V37.716C422.029,16.818,438.847,0,459.745,0h91.746
		c20.39,0,37.719,16.818,37.719,37.716V356.787z M434.77,16.312c-5.096,5.606-8.154,13.25-8.154,21.404v310.41l23.446-23.446V31.6
		L434.77,16.312z M459.745,4.589c-8.154,0-15.799,3.054-21.406,8.15l15.289,15.295h102.961l15.799-15.807
		c-5.606-4.585-13.252-7.639-20.897-7.639H459.745z M458.726,217.644h93.275l-23.446-22.94h-46.894L458.726,217.644z
		 M527.536,61.162H483.19v128.445h44.346V61.162z M532.633,59.125v132.521l23.445,23.446V35.679L532.633,59.125z M532.633,249.244
		v98.883l23.445-23.446v-98.377L532.633,249.244z"/>
	<path fill="#CC9215" d="M737.682,225.287l61.678-14.271V319.07c0,20.388-17.329,37.716-37.721,37.716h-91.746
		c-20.898,0-37.717-17.329-37.717-37.716V37.716C632.176,16.818,648.994,0,669.893,0h91.746c20.392,0,37.721,16.818,37.721,37.716
		v72.379l-61.678,14.271V61.162h-44.344v233.957h44.344V225.287z M636.764,319.07c0,8.155,3.057,15.292,8.154,21.409l15.292-15.798
		V31.6l-15.292-15.287c-5.097,5.606-8.154,13.25-8.154,21.404V319.07z M669.893,4.589c-8.154,0-15.801,3.054-21.407,8.15
		l15.29,15.295h102.958l15.803-15.807c-5.606-4.585-13.251-7.639-20.897-7.639H669.893z M738.703,300.214H691.81l-22.936,23.446
		h93.275L738.703,300.214z M742.776,59.125v56.577l23.446-23.445V35.679L742.776,59.125z M742.776,297.151l23.446,23.447v-76.966
		l-23.446-12.228V297.151z M768.265,239.047l20.387-20.388l-41.284,9.686L768.265,239.047z"/>
	<path fill="#CC9215" d="M1009.509,295.119v61.668H842.325V0h167.184v61.162H903.488v86.139h84.608v61.164h-84.608v86.654H1009.509z
		 M846.909,8.154v339.973l23.447-23.446V31.6L846.909,8.154z M976.884,28.035l23.446-23.446H850.479l23.447,23.446H976.884z
		 M979.435,152.402h-77.474l-22.935,22.935h77.475L979.435,152.402z M1000.84,300.214h-98.879l-22.935,23.446h98.366
		L1000.84,300.214z"/>
	<path fill="#CC9215" d="M1198.754,295.119v61.668h-146.279V0h61.157v295.119H1198.754z M1080.505,31.6L1057.06,8.154v339.973
		l23.445-23.446V31.6z M1082.545,26.504l21.916-21.915h-43.836L1082.545,26.504z M1190.091,300.214h-77.986l-22.934,23.446h77.476
		L1190.091,300.214z"/>
	<path fill="#CC9215" d="M1325.926,0h62.182l-58.614,206.426v150.36h-61.675v-150.36L1209.201,0h62.186l27.523,106.016L1325.926,0z
		 M1216.852,8.154l56.065,197.767v142.206l23.446-23.446V196.741l-49.95-164.63L1216.852,8.154z M1247.435,26.504l17.328-21.915
		h-44.857L1247.435,26.504z M1346.311,30.579l-17.326-22.936l-28.037,108.569v63.2L1346.311,30.579z M1349.881,26.504l27.521-21.915
		h-44.851L1349.881,26.504z"/>
</g>
<path fill="#231F20" d="M131.229,147.337c20.39,0,37.72,16.821,37.72,37.719v134.049c0,20.39-17.33,37.719-37.72,37.719H39.483
	c-20.897,0-37.716-17.329-37.716-37.719V245.71l61.163-14.271v63.713h44.346v-86.65H39.483c-20.897,0-37.716-16.821-37.716-37.719
	V37.751c0-20.897,16.819-37.716,37.716-37.716h91.745c20.39,0,37.72,16.818,37.72,37.716v72.377l-61.673,14.273V61.197H62.93v86.14
	H131.229z M6.355,170.782c0,8.157,3.058,15.803,8.154,21.409l15.292-15.292V31.635L14.509,16.347
	c-5.096,5.605-8.154,13.251-8.154,21.405V170.782z M6.355,251.826v67.279c0,8.156,3.058,15.292,8.154,21.408l15.292-15.799V264.06
	L6.355,251.826z M31.838,259.472l20.898-20.898l-41.794,9.684L31.838,259.472z M39.483,4.623c-8.154,0-15.799,3.056-21.406,8.154
	l15.291,15.292h102.959l15.8-15.802c-5.606-4.587-13.251-7.644-20.898-7.644H39.483z M21.645,192.191l-3.567,3.569
	c4.077,3.567,8.664,6.115,13.761,7.135L21.645,192.191z M21.645,340.513l-3.567,3.059c4.077,3.569,8.664,6.117,13.761,7.135
	L21.645,340.513z M24.703,188.622l15.291,15.292h13.763l-21.919-22.426L24.703,188.622z M24.703,336.944l15.291,14.782h13.763
	L31.838,329.81L24.703,336.944z M57.834,59.668L34.896,36.223v14.274l22.938,23.445V59.668z M34.896,71.901l22.938,22.938V81.076
	L34.896,57.63V71.901z M34.896,92.799l22.938,23.446v-14.271L34.896,78.529V92.799z M57.834,123.381L34.896,99.934v14.273
	l22.938,22.936V123.381z M53.246,153.454l4.588-4.587v-4.587l-22.938-23.446v14.273L53.246,153.454z M42.542,164.158l7.134-7.136
	l-14.781-14.782v14.271L42.542,164.158z M34.896,163.139v8.664l4.079-4.077L34.896,163.139z M53.246,301.776l4.588-5.095v-4.079
	l-22.938-23.446v14.272L53.246,301.776z M42.542,312.48l7.134-7.135l-14.781-15.292v14.271L42.542,312.48z M34.896,311.461v8.665
	l4.079-4.587L34.896,311.461z M42.542,255.904l-7.136,7.135l22.427,22.427v-14.272L42.542,255.904z M37.446,180.468l23.445,23.446
	h14.272l-23.446-23.446H37.446z M37.446,328.28l23.445,23.447h14.272L51.717,328.28H37.446z M61.4,56.102h14.273L52.227,33.165
	H38.465L61.4,56.102z M61.4,152.435L38.465,175.37h98.374l15.799-15.289c-6.117-5.098-13.252-7.646-21.41-7.646H61.4z
	 M108.294,300.247H61.4l-22.935,23.447h93.274L108.294,300.247z M53.246,245.2l-7.134,7.135l11.722,11.725v-13.763L53.246,245.2z
	 M57.834,243.162v-3.058l-1.018,1.528L57.834,243.162z M58.853,180.468l23.446,23.446H96.06l-22.935-23.446H58.853z M58.853,328.28
	l23.446,23.447H96.06L73.125,328.28H58.853z M73.634,33.165H59.363l23.446,22.938H97.08L73.634,33.165z M103.197,203.914h5.607
	l4.077-4.587l-18.859-18.859H79.75L103.197,203.914z M79.75,328.28l23.447,23.447h14.272L94.022,328.28H79.75z M103.707,56.102
	h4.587l4.587-4.588l-18.35-18.349H80.769L103.707,56.102z M115.43,180.468h-14.272l15.29,15.292l7.138-7.138L115.43,180.468z
	 M124.604,351.727h6.624c2.041,0,4.588-0.509,6.628-0.509L115.43,328.28h-14.272L124.604,351.727z M115.94,33.165h-14.274
	l14.781,14.781l7.138-7.135L115.94,33.165z M112.372,59.16v56.578l23.445-23.448V35.714L112.372,59.16z M112.372,297.188
	l23.445,23.446V184.037l-23.445,22.936V297.188z M120.017,114.717l1.529,1.528l11.723-2.548l-6.116-6.117L120.017,114.717z
	 M127.153,185.566l5.097-5.098h-10.194L127.153,185.566z M136.327,328.28h-14.271l20.896,20.898
	c3.569-1.019,6.627-3.059,9.175-5.095L136.327,328.28z M127.153,37.244l4.586-4.08h-8.664L127.153,37.244z M130.721,104.012
	l8.155,8.156l11.214-2.548l-12.233-12.233L130.721,104.012z M140.404,50.497l23.446,23.445V59.668l-23.446-23.445V50.497z
	 M140.404,71.901l23.446,22.938V81.076L140.404,57.63V71.901z M140.404,91.78l23.446,12.232v-2.038l-23.446-23.446V91.78z
	 M140.404,198.818l23.446,22.936v-13.762l-23.446-23.446V198.818z M140.404,219.713l23.446,23.448V228.89l-23.446-23.446V219.713z
	 M140.404,241.122l23.446,22.938v-13.763l-23.446-23.445V241.122z M140.404,262.02l23.446,23.446v-14.272l-23.446-23.446V262.02z
	 M140.404,283.428l23.446,22.936v-13.763l-23.446-23.446V283.428z M140.404,290.053v14.271l22.427,22.426
	c0.51-2.547,1.019-5.096,1.019-7.646v-5.606L140.404,290.053z M155.697,340.513c2.037-2.547,4.075-5.605,5.606-8.665l-20.898-20.387
	v14.271L155.697,340.513z M148.561,22.97l-7.136,7.136l22.425,22.427v-1.019V38.77L148.561,22.97z M141.425,178.429l22.425,22.426
	v-14.27l-15.29-15.293L141.425,178.429z M150.09,102.485l5.607,5.605l3.565-0.51L150.09,102.485z M163.342,31.126
	c-1.529-6.115-4.08-11.214-7.645-15.29l-4.079,3.568L163.342,31.126z M151.618,167.726l11.724,11.213
	c-1.021-5.606-3.57-11.213-7.645-15.292L151.618,167.726z"/>
<path fill="#231F20" d="M379.096,170.782c0,20.898-17.33,37.719-37.719,37.719h-68.299v148.322h-61.163V0.036h129.462
	c20.39,0,37.719,16.818,37.719,37.716V170.782z M216.502,8.189v339.97l23.445-23.445V31.635L216.502,8.189z M362.274,12.267
	c-5.606-4.587-13.252-7.644-20.897-7.644H220.068l23.446,23.445h102.96L362.274,12.267z M221.087,350.707l-1.019,1.02h1.529
	L221.087,350.707z M224.656,347.649l4.077,4.077h14.273l-11.214-11.213L224.656,347.649z M234.85,336.944l15.291,14.782h13.763
	l-21.918-21.917L234.85,336.944z M267.981,59.668l-22.938-23.445v14.274l22.938,23.445V59.668z M245.043,71.901l22.938,22.938
	V81.076L245.043,57.63V71.901z M245.043,92.799l22.938,23.446v-14.271l-22.938-23.446V92.799z M267.981,123.381l-22.938-23.447
	v14.273l22.938,22.936V123.381z M263.393,153.454l4.588-4.587v-4.587l-22.938-23.446v14.273L263.393,153.454z M252.689,164.158
	l7.135-7.136l-14.781-14.782v14.271L252.689,164.158z M245.043,163.139v8.664l4.08-4.077L245.043,163.139z M267.981,207.991
	l-22.938-23.446v14.272l22.938,22.936V207.991z M245.043,219.713l22.938,23.448V228.89l-22.938-23.446V219.713z M245.043,241.122
	l22.938,22.938v-13.763l-22.938-23.445V241.122z M245.043,262.02l22.938,23.446v-14.272l-22.938-23.446V262.02z M267.981,292.602
	l-22.938-23.446v14.272l22.938,22.936V292.602z M245.043,290.053v14.271l22.938,23.447v-14.273L245.043,290.053z M245.043,325.733
	l22.938,22.937v-13.762l-22.938-23.446V325.733z M271.039,203.914h14.271l-23.445-23.446h-14.271L271.039,203.914z M262.375,33.165
	h-13.762l22.935,22.938h14.274L262.375,33.165z M341.887,175.37l-23.446-22.935h-46.894l-22.935,22.935H341.887z M283.272,180.468
	h-14.274l23.447,23.446h13.762L283.272,180.468z M283.781,33.165h-14.271l23.445,22.938h14.271L283.781,33.165z M317.422,61.197
	h-44.345v86.14h44.345V61.197z M289.897,180.468l23.447,23.446h14.272l-23.448-23.446H289.897z M304.679,33.165h-13.763
	l22.938,22.938h4.587l4.588-4.588L304.679,33.165z M334.752,203.914h6.624c2.04,0,4.587-0.51,6.627-1.019l-22.427-22.427h-14.271
	L334.752,203.914z M326.088,33.165h-14.274l14.782,14.781l7.137-7.135L326.088,33.165z M322.519,149.377l23.445,23.446V35.714
	L322.519,59.16V149.377z M353.1,201.366c3.568-1.529,6.626-3.058,9.174-5.098l-15.799-15.8h-14.271L353.1,201.366z M337.3,37.244
	l4.587-4.08h-8.665L337.3,37.244z M350.551,50.497l23.447,23.445V59.668l-23.447-23.445V50.497z M350.551,71.901l23.447,22.938
	V81.076L350.551,57.63V71.901z M350.551,92.799l23.447,23.446v-14.271l-23.447-23.446V92.799z M350.551,114.208l23.447,22.936
	v-13.762l-23.447-23.447V114.208z M350.551,135.106l23.447,23.445v-14.272l-23.447-23.446V135.106z M350.551,142.241v14.271
	l22.428,22.427c0.51-2.547,1.019-5.098,1.019-8.157v-5.095L350.551,142.241z M365.843,192.702c2.039-2.55,4.077-5.608,5.606-8.665
	l-20.899-20.898v14.271L365.843,192.702z M351.57,30.106l22.428,22.427V38.77l-15.29-15.799L351.57,30.106z M361.766,19.404
	l11.723,11.722c-1.529-6.115-4.079-11.214-7.646-15.29L361.766,19.404z"/>
<path fill="#231F20" d="M589.245,356.824h-61.672V250.808h-44.347v106.016h-61.162V37.751c0-20.897,16.819-37.716,37.717-37.716
	h91.745c20.391,0,37.719,16.818,37.719,37.716V356.824z M434.806,16.347c-5.096,5.605-8.154,13.251-8.154,21.405V348.16
	l23.446-23.445V31.635L434.806,16.347z M431.237,350.707l-1.019,1.02h1.529L431.237,350.707z M434.806,347.649l4.077,4.077h14.273
	l-11.215-11.213L434.806,347.649z M459.781,4.623c-8.154,0-15.801,3.056-21.406,8.154l15.289,15.292h102.961l15.799-15.802
	c-5.605-4.587-13.251-7.644-20.898-7.644H459.781z M444.999,336.944l15.292,14.782h13.762l-21.918-21.917L444.999,336.944z
	 M478.13,59.668l-22.938-23.445v14.274l22.938,23.445V59.668z M455.193,71.901l22.938,22.938V81.076L455.193,57.63V71.901z
	 M455.193,92.799l22.938,23.446v-14.271l-22.938-23.446V92.799z M455.193,114.208l22.938,22.936v-13.762l-22.938-23.447V114.208z
	 M455.193,135.106l22.938,23.445v-14.272l-22.938-23.446V135.106z M478.13,165.687l-22.938-23.446v14.271l22.938,22.938V165.687z
	 M473.542,195.76l4.588-4.588v-4.586l-22.938-23.447v14.271L473.542,195.76z M462.838,206.461l7.137-7.135l-14.782-14.781v14.272
	L462.838,206.461z M455.193,205.444v8.664l4.079-4.077L455.193,205.444z M478.13,264.06v-13.763l-22.938-23.445v14.27L478.13,264.06
	z M455.193,262.02l22.938,23.446v-14.272l-22.938-23.446V262.02z M455.193,283.428l22.938,22.936v-13.763l-22.938-23.446V283.428z
	 M455.193,290.053v14.271l22.938,23.447v-14.273L455.193,290.053z M455.193,325.733l22.938,22.937v-13.762l-22.938-23.446V325.733z
	 M481.188,246.221h14.271l-23.446-23.449h-14.271L481.188,246.221z M472.524,33.165h-13.762l22.935,22.938h14.274L472.524,33.165z
	 M458.762,217.676h93.274L528.59,194.74h-46.894L458.762,217.676z M493.421,222.772h-14.272l23.445,23.449h13.762L493.421,222.772z
	 M493.931,33.165h-14.271l23.445,22.938h14.271L493.931,33.165z M527.572,61.197h-44.347v128.446h44.347V61.197z M523.492,246.221
	h4.588l5.097-4.589l-18.859-18.86h-14.271L523.492,246.221z M514.828,33.165h-13.763l22.938,22.938h4.587l4.587-4.588
	L514.828,33.165z M535.726,222.772h-14.271l15.29,15.292l7.137-7.135L535.726,222.772z M536.236,33.165h-14.273l14.782,14.781
	l7.137-7.135L536.236,33.165z M532.667,59.16v132.521l23.446,23.448V35.714L532.667,59.16z M532.667,249.278v98.881l23.446-23.445
	v-98.373L532.667,249.278z M536.745,350.707l-0.509,1.02h1.53L536.745,350.707z M540.313,347.649l4.587,4.077h13.764l-11.215-11.213
	L540.313,347.649z M547.449,227.87l5.098-5.098h-10.194L547.449,227.87z M547.449,37.244l4.586-4.08h-8.665L547.449,37.244z
	 M551.018,336.944l14.782,14.782h14.271l-21.916-21.917L551.018,336.944z M560.701,50.497l23.446,23.445V59.668l-23.446-23.445
	V50.497z M560.701,71.901l23.446,22.938V81.076L560.701,57.63V71.901z M560.701,92.799l23.446,23.446v-14.271l-23.446-23.446V92.799
	z M560.701,114.208l23.446,22.936v-13.762l-23.446-23.447V114.208z M560.701,135.106l23.446,23.445v-14.272l-23.446-23.446V135.106z
	 M560.701,156.512l23.446,22.938v-13.763l-23.446-23.446V156.512z M560.701,177.409l23.446,23.446v-14.27l-23.446-23.447V177.409z
	 M560.701,198.818l23.446,22.936v-13.762l-23.446-23.446V198.818z M560.701,219.713l23.446,23.448V228.89l-23.446-23.446V219.713z
	 M560.701,241.122l23.446,22.938v-13.763l-23.446-23.445V241.122z M560.701,262.02l23.446,23.446v-14.272l-23.446-23.446V262.02z
	 M560.701,283.428l23.446,22.936v-13.763l-23.446-23.446V283.428z M560.701,304.325l23.446,23.447v-14.273l-23.446-23.446V304.325z
	 M560.701,325.733l23.446,22.937v-13.762l-23.446-23.446V325.733z M561.719,30.106l22.428,22.427V38.77l-15.29-15.799
	L561.719,30.106z M571.916,19.404l11.722,11.722c-1.528-6.115-4.078-11.214-7.645-15.29L571.916,19.404z"/>
<path fill="#231F20" d="M737.717,225.323l61.679-14.274v108.056c0,20.39-17.331,37.719-37.723,37.719h-91.745
	c-20.898,0-37.716-17.329-37.716-37.719V37.751c0-20.897,16.818-37.716,37.716-37.716h91.745c20.392,0,37.723,16.818,37.723,37.716
	v13.762v58.615l-61.679,14.273V61.197h-44.343v233.954h44.343V225.323z M636.798,319.105c0,8.156,3.058,15.292,8.154,21.408
	l15.292-15.799V31.635l-15.292-15.288c-5.096,5.605-8.154,13.251-8.154,21.405V319.105z M669.928,4.623
	c-8.154,0-15.8,3.056-21.406,8.154l15.29,15.292h102.956l15.804-15.802c-5.605-4.587-13.248-7.644-20.897-7.644H669.928z
	 M652.087,340.513l-3.566,3.059c4.076,3.569,8.665,6.117,13.759,7.135L652.087,340.513z M655.146,336.944l15.292,14.782H684.2
	l-21.919-21.917L655.146,336.944z M688.278,59.668L665.34,36.223v14.274l22.938,23.445V59.668z M665.34,71.901l22.938,22.938V81.076
	L665.34,57.63V71.901z M665.34,92.799l22.938,23.446v-14.271L665.34,78.529V92.799z M665.34,114.208l22.938,22.936v-13.762
	L665.34,99.934V114.208z M665.34,135.106l22.938,23.445v-14.272l-22.938-23.446V135.106z M665.34,156.512l22.938,22.938v-13.763
	l-22.938-23.446V156.512z M665.34,177.409l22.938,23.446v-14.27l-22.938-23.447V177.409z M665.34,198.818l22.938,22.936v-13.762
	l-22.938-23.446V198.818z M665.34,219.713l22.938,23.448V228.89l-22.938-23.446V219.713z M665.34,241.122l22.938,22.938v-13.763
	l-22.938-23.445V241.122z M688.278,271.194l-22.938-23.446v14.271l22.938,23.446V271.194z M683.69,301.776l4.588-5.095v-4.079
	l-22.938-23.446v14.272L683.69,301.776z M672.986,312.48l7.136-7.135l-14.782-15.292v14.271L672.986,312.48z M665.34,311.461v8.665
	l4.08-4.587L665.34,311.461z M667.891,328.28l23.445,23.447h14.271L682.16,328.28H667.891z M691.844,56.102h14.274L682.67,33.165
	h-13.762L691.844,56.102z M738.739,300.247h-46.896l-22.935,23.447h93.275L738.739,300.247z M689.296,328.28l23.444,23.447h13.764
	l-22.937-23.447H689.296z M704.079,33.165h-14.272l23.442,22.938h14.276L704.079,33.165z M710.197,328.28l23.444,23.447h14.271
	l-23.45-23.447H710.197z M734.15,56.102h4.589l4.583-4.588l-18.349-18.349h-13.762L734.15,56.102z M755.046,351.727h6.627
	c2.042,0,4.585-0.509,6.628-0.509l-22.426-22.938h-14.274L755.046,351.727z M746.386,33.165h-14.276l14.783,14.781l7.136-7.135
	L746.386,33.165z M742.812,59.16v56.578l23.445-23.448V35.714L742.812,59.16z M742.812,297.188l23.445,23.446V243.67l-23.445-12.232
	V297.188z M768.301,239.082l20.387-20.387l-41.285,9.685L768.301,239.082z M750.46,114.717l1.533,1.528l11.722-2.548l-6.117-6.117
	L750.46,114.717z M766.767,328.28h-14.264l20.893,20.898c3.569-1.019,6.629-3.059,9.175-5.095L766.767,328.28z M757.598,37.244
	l4.586-4.08h-8.665L757.598,37.244z M761.162,104.012l8.16,8.156l11.212-2.548l-12.233-12.233L761.162,104.012z M770.848,50.497
	l23.446,23.445V59.668l-23.446-23.445V50.497z M770.848,71.901l23.446,22.938V81.076L770.848,57.63V71.901z M770.848,91.78
	l23.446,12.232v-2.038l-23.446-23.446V91.78z M770.848,262.02l23.446,23.446v-14.272l-23.446-23.446V262.02z M770.848,283.428
	l23.446,22.936v-13.763l-23.446-23.446V283.428z M770.848,290.053v14.271l22.43,22.426c0.51-2.547,1.017-5.096,1.017-7.646v-5.606
	L770.848,290.053z M786.14,340.513c2.036-2.547,4.074-5.605,5.605-8.665l-20.897-20.387v14.271L786.14,340.513z M779.001,22.97
	l-7.132,7.136l22.425,22.427v-1.019V38.77L779.001,22.97z M772.376,242.142l21.918,21.918v-13.763l-14.782-15.292L772.376,242.142z
	 M780.534,102.485l5.605,5.605l3.564-0.51L780.534,102.485z M793.787,31.126c-1.53-6.115-4.083-11.214-7.647-15.29l-4.075,3.568
	L793.787,31.126z M782.57,231.438l11.724,11.723V228.89l-4.59-4.588L782.57,231.438z M793.277,221.243l1.017,0.511v-1.529
	L793.277,221.243z"/>
<path fill="#231F20" d="M1009.545,295.151v61.672H842.359V0.036h167.186v61.162H903.523v86.14h84.609v61.165h-84.609v86.65H1009.545
	z M846.945,8.189v339.97l23.447-23.445V31.635L846.945,8.189z M976.919,28.068l23.445-23.445H850.516l23.443,23.445H976.919z
	 M851.535,350.707l-1.02,1.02h1.525L851.535,350.707z M855.104,347.649l4.074,4.077h14.275l-11.218-11.213L855.104,347.649z
	 M865.296,336.944l15.293,14.782h13.761l-21.915-21.917L865.296,336.944z M898.428,73.942V59.668l-22.941-23.445v14.274
	L898.428,73.942z M875.486,71.901l22.941,22.938V81.076L875.486,57.63V71.901z M875.486,92.799l22.941,23.446v-14.271
	l-22.941-23.446V92.799z M875.486,99.934v14.273l22.941,22.936v-13.762L875.486,99.934z M893.837,153.454l4.591-4.587v-4.587
	l-22.941-23.446v14.273L893.837,153.454z M883.135,164.158l7.14-7.136l-14.788-14.782v14.271L883.135,164.158z M875.486,163.139
	v8.664l4.084-4.077L875.486,163.139z M898.428,207.991l-22.941-23.446v14.272l22.941,22.936V207.991z M875.486,219.713
	l22.941,23.448V228.89l-22.941-23.446V219.713z M875.486,241.122l22.941,22.938v-13.763l-22.941-23.445V241.122z M875.486,247.749
	v14.271l22.941,23.446v-14.272L875.486,247.749z M893.837,301.776l4.591-5.095v-4.079l-22.941-23.446v14.272L893.837,301.776z
	 M883.135,312.48l7.14-7.135l-14.788-15.292v14.271L883.135,312.48z M875.486,311.461v8.665l4.084-4.587L875.486,311.461z
	 M901.487,203.914h14.269l-23.444-23.446h-14.271L901.487,203.914z M878.041,328.28l23.446,23.447h14.269l-23.444-23.447H878.041z
	 M901.998,56.102h14.268l-23.444-22.938h-13.76L901.998,56.102z M979.472,152.435h-77.474l-22.937,22.935h77.474L979.472,152.435z
	 M1000.873,300.247h-98.875l-22.937,23.447h98.368L1000.873,300.247z M913.721,180.468h-14.277l23.447,23.446h13.765
	L913.721,180.468z M899.443,328.28l23.447,23.447h13.765l-22.935-23.447H899.443z M914.23,33.165h-14.276l23.445,22.938h14.275
	L914.23,33.165z M934.613,180.468h-14.269l23.447,23.446h14.271L934.613,180.468z M920.345,328.28l23.447,23.447h14.271
	l-23.449-23.447H920.345z M921.362,33.165l22.941,22.938h14.264l-23.444-22.938H921.362z M956.024,180.468H941.75l23.446,23.446
	h13.765L956.024,180.468z M941.75,328.28l23.446,23.447h13.765l-22.937-23.447H941.75z M942.259,33.165l23.447,22.938h14.274
	l-23.445-22.938H942.259z M967.748,171.292l-7.136,7.137l22.422,22.426v-14.27L967.748,171.292z M962.651,328.28l23.446,23.447
	h14.267l-23.445-23.447H962.651z M963.669,33.165l22.935,22.938h14.27L977.43,33.165H963.669z M978.451,160.589l-7.139,7.137
	l11.722,11.724v-13.763L978.451,160.589z M982.019,30.106l22.425,22.427V38.77l-15.29-15.799L982.019,30.106z M983.034,158.551
	v-3.058l-1.016,1.529L983.034,158.551z M982.019,326.243l22.425,22.426v-13.762l-15.801-15.803L982.019,326.243z M992.214,19.404
	l12.229,12.231V17.364l-5.095-4.587L992.214,19.404z M992.214,315.539l12.229,12.233v-14.273l-5.095-5.096L992.214,315.539z
	 M1002.917,9.208l1.526,1.529V7.679L1002.917,9.208z M1004.443,303.816l-1.526,1.529l1.526,1.019V303.816z"/>
<path fill="#231F20" d="M1198.791,295.151v61.672H1052.51V0.036h61.159v295.116H1198.791z M1080.543,31.635l-23.447-23.445v339.97
	l23.447-23.445V31.635z M1082.578,26.54l21.92-21.917h-43.84L1082.578,26.54z M1061.681,350.707l-1.022,1.02h1.533L1061.681,350.707
	z M1065.248,347.649l4.081,4.077h14.271l-11.218-11.213L1065.248,347.649z M1075.444,336.944l15.288,14.782h13.766l-21.92-21.917
	L1075.444,336.944z M1108.571,59.668l-22.935-23.445v14.274l22.935,23.445V59.668z M1085.637,71.901l22.935,22.938V81.076
	l-22.935-23.445V71.901z M1085.637,92.799l22.935,23.446v-14.271l-22.935-23.446V92.799z M1085.637,114.208l22.935,22.936v-13.762
	l-22.935-23.447V114.208z M1085.637,135.106l22.935,23.445v-14.272l-22.935-23.446V135.106z M1085.637,156.512l22.935,22.938
	v-13.763l-22.935-23.446V156.512z M1085.637,177.409l22.935,23.446v-14.27l-22.935-23.447V177.409z M1085.637,198.818l22.935,22.936
	v-13.762l-22.935-23.446V198.818z M1085.637,219.713l22.935,23.448V228.89l-22.935-23.446V219.713z M1085.637,241.122l22.935,22.938
	v-13.763l-22.935-23.445V241.122z M1085.637,247.749v14.271l22.935,23.446v-14.272L1085.637,247.749z M1103.987,301.776l4.584-5.095
	v-4.079l-22.935-23.446v14.272L1103.987,301.776z M1093.285,312.48l7.135-7.135l-14.783-15.292v14.271L1093.285,312.48z
	 M1085.637,311.461v8.665l4.08-4.587L1085.637,311.461z M1093.285,22.97l-7.138,7.136l22.424,22.427V38.77L1093.285,22.97z
	 M1088.189,328.28l23.446,23.447h14.266l-23.446-23.447H1088.189z M1190.127,300.247h-77.986l-22.934,23.447h77.474
	L1190.127,300.247z M1103.987,12.777l-7.136,6.627l11.72,12.231V17.364L1103.987,12.777z M1108.571,10.229v-2.55l-1.015,1.528
	L1108.571,10.229z M1109.594,328.28l23.444,23.447h13.765l-22.935-23.447H1109.594z M1130.491,328.28l23.446,23.447h14.271
	l-23.447-23.447H1130.491z M1151.9,328.28l23.444,23.447h14.272l-23.446-23.447H1151.9z M1171.27,326.243l22.424,22.426v-13.762
	l-15.8-15.803L1171.27,326.243z M1181.463,315.539l12.23,12.233v-14.273l-5.094-5.096L1181.463,315.539z M1193.693,303.816
	l-1.531,1.529l1.531,1.019V303.816z"/>
<path fill="#231F20" d="M1325.96,0.036h62.184l-58.614,206.426v150.362h-61.676V206.461L1209.237,0.036h62.188l27.522,106.016
	L1325.96,0.036z M1216.886,8.189l56.064,197.765V348.16l23.447-23.445V196.779l-49.951-164.633L1216.886,8.189z M1247.469,26.54
	l17.33-21.917h-44.86L1247.469,26.54z M1252.053,29.598l-1.02,1.018l5.095,17.33l30.585,30.583l-5.096-19.369L1252.053,29.598z
	 M1261.229,17.364l-6.115,8.154l23.956,24.467l-4.589-19.37L1261.229,17.364z M1288.755,87.704l-29.562-29.565l6.116,20.39
	l28.541,28.034L1288.755,87.704z M1264.287,13.795l7.644,7.646l-3.566-13.762L1264.287,13.795z M1296.397,116.245l-28.033-28.033
	l6.116,20.387l21.917,21.919V116.245z M1277.032,350.707l-0.513,1.02h1.53L1277.032,350.707z M1296.397,137.143l-18.855-18.348
	l6.621,20.387l12.234,12.233V137.143z M1280.594,347.649l4.588,4.077h13.766l-11.215-11.213L1280.594,347.649z M1296.397,158.551
	l-9.174-9.174l9.174,30.073V158.551z M1291.299,336.944l14.784,14.782h14.271l-21.917-21.917L1291.299,336.944z M1346.348,30.615
	L1329.02,7.679l-28.031,108.566v63.205L1346.348,30.615z M1300.988,198.818l23.444,23.446v-14.273l-20.392-20.898l-3.053,9.175
	V198.818z M1300.988,219.713l23.444,23.448V228.89l-23.444-23.446V219.713z M1300.988,241.122l23.444,23.446v-14.271l-23.444-23.445
	V241.122z M1300.988,262.02l23.444,23.446v-14.272l-23.444-23.446V262.02z M1300.988,283.428l23.444,22.936v-13.763l-23.444-23.446
	V283.428z M1300.988,304.325l23.444,23.447v-14.273l-23.444-23.446V304.325z M1300.988,325.733l23.444,22.937v-13.762
	l-23.444-23.446V325.733z M1305.573,181.997l19.877,19.878l3.569-10.703l-19.882-19.879L1305.573,181.997z M1310.668,165.687
	l19.881,19.879l3.055-11.214l-19.877-19.369L1310.668,165.687z M1315.254,149.377l19.88,19.876l3.06-11.211l-19.365-19.369
	L1315.254,149.377z M1320.354,133.066l19.367,19.369l3.064-10.704l-18.863-19.368L1320.354,133.066z M1325.45,117.267l18.86,18.858
	l3.057-11.215l-18.857-18.858L1325.45,117.267z M1330.039,100.956l18.857,18.858l3.058-11.214l-18.351-18.348L1330.039,100.956z
	 M1349.917,26.54l27.522-21.917h-44.853L1349.917,26.54z M1335.134,84.646l18.353,18.348l3.564-11.213l-18.352-17.838
	L1335.134,84.646z M1340.23,68.335l18.35,18.347l3.058-11.211l-18.348-17.84L1340.23,68.335z M1344.818,52.024l18.349,18.348
	l3.062-11.212l-18.349-16.821L1344.818,52.024z M1349.406,37.244l18.35,16.818l3.058-11.724l-15.29-13.761l-4.079,3.568
	L1349.406,37.244z M1359.093,25.518l13.253,11.726l3.055-11.215l-8.155-6.625L1359.093,25.518z M1371.326,15.836l5.606,5.097
	l3.562-12.744L1371.326,15.836z"/>
<g>
	<path fill="#231F20" d="M1387.445,0.536l-58.433,205.79l-0.02,0.067v0.069v149.861h-60.671V206.461v-0.069l-0.02-0.067
		l-58.434-205.79h61.134l27.423,105.642l0.489,1.881l0.479-1.883l26.923-105.64H1387.445 M1113.137,0.536v294.618v0.5h0.5h84.617
		v60.669h-145.279V0.536H1113.137 M1009.009,0.536v60.162H903.49h-0.5v0.5v86.14v0.5h0.5h84.111v60.162H903.49h-0.5v0.5v86.654v0.5
		h0.5h105.519v60.669H842.825V0.536H1009.009 M761.639,0.536c9.786,0,19.075,3.863,26.155,10.876
		c7.136,7.069,11.065,16.423,11.065,26.339v71.982l-60.673,14.04V61.197v-0.5h-0.5h-44.346h-0.5v0.5v233.956v0.5h0.5h44.346h0.5
		v-0.5v-69.433l60.673-14.04v107.424c0,20.174-17.045,37.217-37.221,37.217h-91.745c-9.916,0-19.271-3.93-26.34-11.065
		c-7.014-7.08-10.877-16.368-10.877-26.152V37.751c0-9.973,3.862-19.328,10.875-26.341s16.368-10.875,26.341-10.875H761.639
		 M551.492,0.536c9.785,0,19.074,3.863,26.154,10.876c7.136,7.069,11.065,16.423,11.065,26.339v318.571H528.04V250.805v-0.5h-0.5
		h-44.346h-0.5v0.5v105.517h-60.163V37.751c0-9.974,3.862-19.328,10.875-26.341c7.013-7.013,16.368-10.875,26.341-10.875H551.492
		 M482.693,190.143h0.5h44.346h0.5v-0.5V61.197v-0.5h-0.5h-44.346h-0.5v0.5v128.446V190.143 M341.343,0.536
		c9.785,0,19.073,3.863,26.153,10.876c7.136,7.069,11.065,16.423,11.065,26.339v133.031c0,9.917-3.93,19.271-11.065,26.34
		c-7.08,7.014-16.368,10.877-26.153,10.877h-68.3h-0.5v0.5v147.823h-60.162V0.536H341.343 M272.543,147.837h0.5h44.347h0.5v-0.5
		v-86.14v-0.5h-0.5h-44.347h-0.5v0.5v86.14V147.837 M131.197,0.536c9.785,0,19.073,3.863,26.153,10.876
		c7.135,7.069,11.065,16.423,11.065,26.339v71.982l-60.672,14.04V61.197v-0.5h-0.5H62.897h-0.5v0.5v86.14v0.5h0.5h68.299
		c9.785,0,19.073,3.863,26.153,10.878c7.135,7.069,11.065,16.423,11.065,26.338v134.051c0,20.174-17.044,37.217-37.218,37.217H39.45
		c-9.917,0-19.271-3.93-26.34-11.065c-7.014-7.08-10.876-16.367-10.876-26.152v-72.998l60.164-14.039v63.085v0.5h0.5h44.345h0.5
		v-0.5v-86.654v-0.5h-0.5H39.45c-9.974,0-19.329-3.862-26.341-10.875c-7.013-7.013-10.875-16.368-10.875-26.342V37.751
		c0-9.974,3.862-19.328,10.875-26.341S29.477,0.536,39.45,0.536H131.197 M1388.107,0.036h-62.179l-27.019,106.016L1271.39,0.036
		h-62.183l58.615,206.426v150.361h61.671V206.461L1388.107,0.036L1388.107,0.036z M1113.637,0.036h-61.162v356.787h146.279v-61.669
		h-85.117V0.036L1113.637,0.036z M1009.509,0.036H842.325v356.787h167.184v-61.669H903.49v-86.654h84.611v-61.162H903.49v-86.14
		h106.019V0.036L1009.509,0.036z M761.639,0.036h-91.745c-20.897,0-37.717,16.818-37.717,37.716v281.354
		c0,20.387,16.819,37.717,37.717,37.717h91.745c20.392,0,37.721-17.33,37.721-37.717V211.052l-61.673,14.271v69.83h-44.346V61.197
		h44.346v63.205l61.673-14.271V37.751C799.359,16.854,782.03,0.036,761.639,0.036L761.639,0.036z M551.492,0.036h-91.745
		c-20.897,0-37.716,16.818-37.716,37.716v319.071h61.163V250.805h44.346v106.017h61.672V37.751
		C589.212,16.854,571.882,0.036,551.492,0.036L551.492,0.036z M483.193,189.643V61.197h44.346v128.446H483.193L483.193,189.643z
		 M341.343,0.036H211.881v356.787h61.162V208.499h68.3c20.389,0,37.719-16.818,37.719-37.717V37.751
		C379.062,16.854,361.732,0.036,341.343,0.036L341.343,0.036z M273.043,147.337v-86.14h44.347v86.14H273.043L273.043,147.337z
		 M131.197,0.036H39.45c-20.898,0-37.716,16.818-37.716,37.716v133.031c0,20.898,16.818,37.717,37.716,37.717h67.792v86.654H62.897
		v-63.715L1.734,245.71v73.395c0,20.387,16.818,37.717,37.716,37.717h91.747c20.389,0,37.718-17.33,37.718-37.717V185.054
		c0-20.894-17.329-37.717-37.718-37.717H62.897v-86.14h44.345v63.205l61.672-14.271V37.751
		C168.915,16.854,151.586,0.036,131.197,0.036L131.197,0.036z"/>
	<path fill="#231F20" d="M1388.107,0.036l-58.614,206.426v150.361h-61.671V206.461L1209.207,0.036h62.183l27.521,106.016
		l27.019-106.016H1388.107 M1113.637,0.036v295.118h85.117v61.669h-146.279V0.036H1113.637 M1009.509,0.036v61.162H903.49v86.14
		h84.611v61.162H903.49v86.654h106.019v61.669H842.325V0.036H1009.509 M761.639,0.036c20.392,0,37.721,16.818,37.721,37.716v72.379
		l-61.673,14.271V61.197h-44.346v233.956h44.346v-69.83l61.673-14.271v108.053c0,20.387-17.329,37.717-37.721,37.717h-91.745
		c-20.897,0-37.717-17.33-37.717-37.717V37.751c0-20.897,16.819-37.716,37.717-37.716H761.639 M551.492,0.036
		c20.39,0,37.72,16.818,37.72,37.716v319.071H527.54V250.805h-44.346v106.017h-61.163V37.751c0-20.897,16.819-37.716,37.716-37.716
		H551.492 M483.193,189.643h44.346V61.197h-44.346V189.643 M341.343,0.036c20.389,0,37.719,16.818,37.719,37.716v133.031
		c0,20.898-17.33,37.717-37.719,37.717h-68.3v148.323h-61.162V0.036H341.343 M273.043,147.337h44.347v-86.14h-44.347V147.337
		 M131.197,0.036c20.389,0,37.718,16.818,37.718,37.716v72.379l-61.672,14.271V61.197H62.897v86.14h68.299
		c20.389,0,37.718,16.823,37.718,37.717v134.051c0,20.387-17.329,37.717-37.718,37.717H39.45c-20.898,0-37.716-17.33-37.716-37.717
		V245.71l61.164-14.271v63.715h44.345v-86.654H39.45c-20.898,0-37.716-16.818-37.716-37.717V37.751
		c0-20.897,16.818-37.716,37.716-37.716H131.197 M1389.431-0.964h-1.323h-62.179h-0.777l-0.191,0.753l-26.059,102.249
		L1272.357-0.216l-0.194-0.749h-0.773h-62.183h-1.323l0.361,1.273l58.577,206.292v150.222v1h1h61.671h1v-1V206.601l58.576-206.292
		L1389.431-0.964L1389.431-0.964z M1114.637-0.964h-1h-61.162h-1v1v356.787v1h1h146.279h1v-1v-61.669v-1h-1h-84.117V0.036V-0.964
		L1114.637-0.964z M1010.509-0.964h-1H842.325h-1v1v356.787v1h1h167.184h1v-1v-61.669v-1h-1H904.49v-84.654h83.611h1v-1v-61.162v-1
		h-1H904.49v-84.14h105.019h1v-1V0.036V-0.964L1010.509-0.964z M761.639-0.964h-91.745c-10.374,0-20.105,4.018-27.402,11.314
		c-7.297,7.296-11.315,17.027-11.315,27.401v281.354c0,10.183,4.017,19.845,11.312,27.208c7.353,7.422,17.086,11.51,27.405,11.51
		h91.745c20.988,0,38.721-17.73,38.721-38.717V211.052v-1.258l-1.226,0.284l-61.673,14.271l-0.774,0.179v0.795v68.83h-42.346V62.197
		h42.346v62.205v1.258l1.226-0.284l61.673-14.271l0.774-0.179v-0.795V37.751c0-10.32-4.088-20.052-11.51-27.405
		C781.486,3.053,771.823-0.964,761.639-0.964L761.639-0.964z M551.492-0.964h-91.745c-10.374,0-20.105,4.018-27.402,11.314
		c-7.296,7.296-11.314,17.027-11.314,27.401v319.071v1h1h61.163h1v-1V251.805h42.346v105.017v1h1h61.672h1v-1V37.751
		c0-10.319-4.088-20.052-11.51-27.405C571.339,3.053,561.676-0.964,551.492-0.964L551.492-0.964z M484.193,62.197h42.346v126.446
		h-42.346V62.197L484.193,62.197z M341.343-0.964H211.881h-1v1v356.787v1h1h61.162h1v-1V209.499h67.3
		c10.184,0,19.846-4.017,27.209-11.311c7.422-7.353,11.51-17.086,11.51-27.406V37.751c0-10.319-4.087-20.052-11.51-27.405
		C361.189,3.053,351.526-0.964,341.343-0.964L341.343-0.964z M274.043,62.197h42.347v84.14h-42.347V62.197L274.043,62.197z
		 M131.197-0.964H39.45c-10.374,0-20.106,4.018-27.402,11.314C4.752,17.646,0.734,27.377,0.734,37.751v133.031
		c0,10.375,4.018,20.106,11.314,27.402c7.296,7.296,17.028,11.314,27.402,11.314h66.792v84.654H63.897v-62.715v-1.26l-1.228,0.286
		L1.507,244.736l-0.773,0.18v0.793v73.395c0,10.183,4.017,19.845,11.311,27.208c7.353,7.422,17.086,11.51,27.405,11.51h91.747
		c20.987,0,38.718-17.73,38.718-38.717V185.054c0-10.318-4.087-20.051-11.509-27.404c-7.363-7.295-17.026-11.313-27.208-11.313
		H63.897v-84.14h42.345v62.205v1.258l1.226-0.284l61.672-14.271l0.774-0.179v-0.795V37.751c0-10.32-4.087-20.052-11.509-27.405
		C151.043,3.053,141.38-0.964,131.197-0.964L131.197-0.964z"/>
</g>
<g>
	<path fill="#231F20" d="M481.43,525.582c10.402,0,16.652,7.27,13.433,16.289l-20.649,57.895
		c-3.143,8.801-14.646,16.281-25.045,16.281h-46.8c-10.659,0-16.573-7.48-13.43-16.281l11.307-31.703l33.396-6.162l-9.812,27.516
		h22.616l13.345-37.414H425.21c-10.658,0-16.645-7.278-13.43-16.297l20.493-57.45c3.22-9.026,14.388-16.284,25.05-16.284h46.796
		c10.4,0,16.645,7.258,13.428,16.284l-11.146,31.267l-33.659,6.146l9.739-27.288h-22.623l-13.267,37.203H481.43z"/>
	<path fill="#231F20" d="M604.252,535.705c-3.214,9.019-14.65,16.297-25.051,16.297h-34.835l-22.845,64.045h-31.196l54.95-154.076
		h66.039c10.398,0,16.645,7.258,13.427,16.284L604.252,535.705z M589.672,488.379h-22.621l-13.264,37.203h22.617L589.672,488.379z"
		/>
	<path fill="#231F20" d="M649.949,616.047l10.105-64.045h-11.959l-22.844,64.045h-31.194l54.947-154.076h66.037
		c10.399,0,16.389,7.258,13.175,16.284l-20.571,57.668c-2.2,6.171-8.398,11.889-16.103,14.527l-10.393,65.597H649.949z
		 M693.4,488.379h-22.618l-13.269,37.203h22.623L693.4,488.379z"/>
	<path fill="#231F20" d="M823.019,461.971c10.403,0,16.651,7.258,13.432,16.284l-43.336,121.511
		c-3.141,8.801-14.649,16.281-25.048,16.281h-46.794c-10.666,0-16.574-7.48-13.438-16.281l43.336-121.511
		c3.221-9.026,14.392-16.284,25.054-16.284H823.019z M801.379,488.379h-22.621l-36.031,101.037h22.616L801.379,488.379z"/>
	<path fill="#231F20" d="M883.296,559.26l33.655-6.163l-16.646,46.669c-3.139,8.801-14.652,16.281-25.049,16.281h-46.796
		c-10.658,0-16.572-7.48-13.43-16.281l43.338-121.511c3.213-9.026,14.381-16.284,25.046-16.284h46.791
		c10.411,0,16.656,7.258,13.438,16.284l-11.151,31.267l-33.657,6.146l9.739-27.289h-22.621l-36.032,101.037h22.616L883.296,559.26z"
		/>
	<path fill="#231F20" d="M1004.023,538.793l1.567,77.254h-31.458l0.053-0.876l-0.869-63.169h-2.861l-22.846,64.045h-31.192
		l54.953-154.076h31.202l-22.692,63.611h2.339l46.609-63.611h31.715L1004.023,538.793z"/>
	<path fill="#231F20" d="M1122.285,589.416l-9.499,26.631h-85.271l54.947-154.076h85.278l-9.42,26.408h-54.082l-13.264,37.203
		h43.164l-9.43,26.42h-43.153l-13.352,37.414H1122.285z"/>
	<path fill="#231F20" d="M1237.007,488.379l-45.53,127.668h-31.461l45.525-127.668h-32.229l9.42-26.408h95.936l-9.426,26.408
		H1237.007z"/>
	<path fill="#231F20" d="M1337.11,525.582c10.401,0,16.649,7.27,13.43,16.289l-20.646,57.895
		c-3.138,8.801-14.645,16.281-25.043,16.281h-46.806c-10.658,0-16.567-7.48-13.427-16.281l11.301-31.703l33.395-6.162l-9.806,27.516
		h22.623l13.339-37.414h-34.581c-10.655,0-16.646-7.278-13.425-16.297l20.489-57.45c3.22-9.026,14.388-16.284,25.049-16.284h46.799
		c10.394,0,16.646,7.258,13.421,16.284l-11.141,31.267l-33.66,6.146l9.74-27.289h-22.618l-13.267,37.203H1337.11z"/>
	<g>
		<path fill="#B5B7B9" d="M678.649,539.887c6.234,0,9.1-1.012,9.1-1.012c4.59-1.576,6.176-4.784,7.013-7.128l20.46-57.367
			c-0.422-0.107,0.642-0.201-0.182-0.201h-55.579l-46.244,129.649h2.247l22.844-64.044h9.787h11.959h16.447L666.4,603.829h2.148
			L678.649,539.887z M657.514,537.79h-18.493l21.979-61.621h9.783H693.4h18.787c0,0-17.278,48.668-19.118,53.591
			c-1.833,4.936-5.881,8.029-12.934,8.029C673.087,537.79,657.514,537.79,657.514,537.79z"/>
		<path fill="#B5B7B9" d="M534.673,539.785h9.693h34.835c5.87,0,10.86-4.539,12.184-8.261l20.359-57.095
			c-0.453-0.127,0.525-0.25-0.429-0.25h-55.723l-46.241,129.649h2.48L534.673,539.785z M557.358,476.169h9.693h22.621h19.2
			c0,0-17.328,48.761-19.114,53.591c-1.783,4.84-5.638,8.029-13.354,8.029c-7.711,0-22.617,0-22.617,0h-18.403L557.358,476.169z"/>
		<path fill="#B5B7B9" d="M481.43,537.79h-34.837h-18.631l5.848-16.398c0,0,11.414-32.319,13.262-37.188
			c1.853-4.877,5.341-8.034,12.788-8.034s22.623,0,22.623,0h18.909l-8.47,23.746l2.537-1.18l8.661-24.305
			c-0.453-0.127,0.952-0.25,0-0.25h-46.796c-6.033,0-10.937,4.516-12.269,8.257l-20.372,57.12c0.471,0.119,1.153,0.229,2.096,0.229
			h33.013h19.186c0,0-17.212,48.298-19.191,53.817c-1.982,5.516-6.367,8.023-12.449,8.023c-6.081,0-23.506,0-23.506,0h-18.594
			l8.538-23.936l-2.794,0.798l-8.826,24.748c0.45,0.136-0.743,0.593,0.213,0.593h46.8c5.762,0,10.866-4.615,12.166-8.257
			l20.516-57.531C481.397,537.911,482.387,537.79,481.43,537.79z"/>
		<path fill="#B5B7B9" d="M1337.5,537.79h-34.829h-18.629l5.843-16.398c0,0,11.42-32.319,13.264-37.188
			c1.852-4.877,5.342-8.034,12.789-8.034c7.443,0,22.619,0,22.619,0h18.912l-8.471,23.746l2.534-1.18l8.663-24.305
			c-0.455-0.128,0.95-0.25,0-0.25h-46.798c-6.033,0-10.934,4.516-12.267,8.257l-20.371,57.12c0.464,0.119,1.15,0.229,2.1,0.229
			h33.009h19.189c0,0-17.218,48.298-19.198,53.817c-1.979,5.516-6.369,8.023-12.45,8.023c-6.078,0-23.507,0-23.507,0h-18.59
			l8.539-23.936l-2.79,0.798l-8.83,24.748c0.446,0.136-0.745,0.593,0.212,0.593h46.798c5.766,0,10.866-4.615,12.17-8.257
			l20.519-57.531C1337.474,537.911,1338.467,537.79,1337.5,537.79z"/>
		<polygon fill="#B5B7B9" points="1046.47,603.829 1104.438,603.829 1105.226,601.626 1068.205,601.626 1049.098,601.626 
			1071.142,539.785 1081.557,539.785 1116.363,539.785 1117.077,537.79 1090.976,537.79 1071.855,537.79 1093.836,476.169 
			1104.239,476.169 1149.969,476.169 1150.682,474.18 1092.715,474.18 		"/>
		<polygon fill="#B5B7B9" points="960.58,539.785 970.455,539.785 973.316,539.785 987.601,539.785 988.48,603.829 990.967,603.829 
			989.646,539.042 994.493,531.443 1036.623,474.18 1034.789,474.18 991.768,532.902 988.188,537.79 982.219,537.79 979.88,537.79 
			961.286,537.79 983.978,474.18 981.633,474.18 935.393,603.829 937.735,603.829 		"/>
		<polygon fill="#B5B7B9" points="1226.734,476.169 1237.007,476.169 1260.897,476.169 1261.608,474.18 1191.074,474.18 
			1190.364,476.169 1205.541,476.169 1224.462,476.169 1178.936,603.829 1181.206,603.829 		"/>
		<path fill="#B5B7B9" d="M894.202,570.035c0,0-6.968,19.773-8.402,23.567c-1.437,3.783-4.399,8.023-13.262,8.023
			c-8.857,0-22.616,0-22.616,0H831.36c0,0,39.589-111.64,41.882-117.427c2.292-5.802,6.211-8.03,12.712-8.03
			c6.5,0,22.621,0,22.621,0h19.073l-8.475,23.746l2.649-1.18l8.661-24.305c-0.453-0.127,0.679-0.25-0.278-0.25h-46.791
			c-6.035,0-10.66,4.512-11.993,8.257l-43.209,121.152c0.446,0.126-0.711,0.24,0.248,0.24h46.796c5.765,0,11.276-4.615,12.574-8.257
			l9.537-26.723L894.202,570.035z"/>
		<path fill="#B5B7B9" d="M823.019,474.18h-46.794c-6.035,0-10.412,4.516-11.749,8.257l-43.203,121.152
			c0.449,0.126-0.967,0.24,0,0.24h46.794c5.761,0,9.894-2.998,11.86-8.257l42.938-121.143
			C822.414,474.302,823.976,474.18,823.019,474.18z M778.439,593.603c-1.545,4.063-2.477,8.023-13.097,8.023
			c-10.615,0-22.616,0-22.616,0h-18.209c0,0,39.605-110.99,41.877-117.427c2.453-6.94,7.683-8.03,12.363-8.03
			c4.687,0,22.621,0,22.621,0h18.941C820.32,476.169,779.981,589.539,778.439,593.603z"/>
	</g>
</g>
<rect x="1.734" y="411.295" fill="#231F20" width="1386.41" height="12"/>
<g>
	<path fill="#231F20" d="M46.558,434.606c0,76.179,65.583,140.653,141.777,140.653c0.218,0,18.315-3.025,18.538-3.025
		c75.858-0.391,119.381-66.646,119.381-142.583c0-3.88-0.169-7.72-0.483-11.518H50.897
		C50.583,421.933,46.558,430.726,46.558,434.606z"/>
	<path fill="#231F20" d="M374.936,472.996v-49.745h-50.629c0.271,3.492,0.411,7.021,0.411,10.583
		c-0.001,74.668-60.517,135.182-135.17,135.182c-0.406,0-0.811,0.109-1.214,0.301c-0.403-0.191-0.806-0.301-1.211-0.301
		c-74.652,0-135.17-60.514-135.17-135.182c0-3.562,0.14-7.09,0.411-10.583H1.732v49.745L43,483.914
		c1.918,5.531,4.112,10.928,6.634,16.148l-21.435,36.844l55.661,55.662l36.761-21.373c5.254,2.541,10.696,4.77,16.266,6.717
		l10.885,41.133H228.9l10.88-41.139c5.571-1.941,11.012-4.17,16.269-6.715l36.76,21.373l55.659-55.658l-21.433-36.844
		c2.521-5.22,4.715-10.62,6.634-16.15L374.936,472.996z"/>
</g>
<g>
	<path fill="#FFFFFF" d="M150.367,430.577c2.37-2.331,3.158-1.217,2.365,3.348c-0.079,0.396-0.629,2.211-1.651,5.447
		c-0.402,1.112,0.028,1.624,1.292,1.536c7.752-0.583,14.923-0.952,21.514-1.108c7.104-0.104,12.196,0.04,15.275,0.432
		c3.509,0.45,6.086,1.636,7.732,3.558c1.56,1.929,1.007,2.79-1.657,2.586c-0.349,0.024-2.011,0.228-4.986,0.607
		c-2.976,0.381-6.697,0.879-11.165,1.493c-4.467,0.615-9.407,1.305-14.817,2.073c-5.412,0.767-10.701,1.504-15.868,2.21
		c-1.317,0.222-2.179,0.911-2.584,2.066c-0.874,2.532-1.833,5.189-2.88,7.971c-1.047,2.783-2.089,5.641-3.128,8.574
		c-1.087,2.98-2.175,5.982-3.264,9.006c-1.091,3.024-2.165,6.112-3.222,9.264c-0.35,1.022,0.038,1.516,1.167,1.479
		c4.91-0.255,8.637-0.319,11.179-0.193c2.149,0.154,4.335,1.119,6.558,2.892c2.222,1.775,2.152,2.81-0.21,3.104
		c-2.716,0.363-5.938,0.835-9.667,1.421c-3.729,0.585-7.411,1.133-11.048,1.646c-1.141,0.167-1.889,0.806-2.246,1.913
		c-2.412,6.715-4.778,13.393-7.098,20.035c-2.32,6.643-4.34,12.365-6.064,17.166c-1.758,4.717-3.181,8.545-4.261,11.482
		c-1.083,2.936-1.652,4.471-1.707,4.604c-0.978,1.76-2.291,1.189-3.937-1.707c-1.647-2.9-2.43-4.805-2.349-5.723
		c0.167-1.875,1.741-6.947,4.725-15.221c1.376-3.822,3.008-8.314,4.892-13.475c1.886-5.16,3.881-10.35,5.988-15.568
		c0.452-1.201,0.13-1.721-0.964-1.559c-0.439,0.074-0.913,0.162-1.419,0.262c-0.507,0.1-0.869,0.158-1.085,0.172
		c-2.628,0.357-4.995-0.518-7.101-2.625c-2.106-2.107-2.764-3.47-1.974-4.089c0.968-0.674,2.905-1.297,5.811-1.868
		c2.906-0.57,6.194-1.049,9.862-1.435c0.96-0.109,1.637-0.655,2.027-1.637c1.22-3.032,2.461-6.056,3.724-9.071
		c1.262-3.014,2.521-5.995,3.777-8.943c2.162-5.353,4.491-10.89,6.989-16.613c0.598-1.385,0.111-1.98-1.465-1.784
		c-5.041,0.741-8.871,1.247-11.49,1.516c-3.111,0.434-4.901,0.624-5.372,0.569c-2.941-0.011-5.341-1.231-7.203-3.66
		c-1.742-2.306-1.928-3.875-0.557-4.708c2.194-1.323,6.131-2.529,11.808-3.619c5.328-1.064,11.726-1.966,19.188-2.703
		c0.919-0.105,1.645-0.741,2.181-1.907C148.577,433.932,150.039,430.86,150.367,430.577z"/>
	<path fill="#FFFFFF" d="M173.12,487.854c-0.602,1.333-1.781,4.321-3.534,8.963c-1.754,4.642-3.141,8.763-4.157,12.359
		s-1.646,6.451-1.887,8.566c-0.292,2.064,0.165,2.383,1.367,0.953c0.897-1.031,2.179-2.627,3.848-4.787
		c1.667-2.162,3.419-4.488,5.251-6.986c1.828-2.439,4.414-5.863,7.757-10.266c3.344-4.403,5.594-7.373,6.751-8.906
		c0.611-0.85,1.142-0.928,1.592-0.232c0.448,0.695-0.18,2.475-1.883,5.338c-1.431,2.198-3.931,5.872-7.502,11.016
		c-3.571,5.146-6.382,9.299-8.434,12.455c-2.107,3.16-4.153,6.1-6.139,8.822c-1.987,2.723-3.736,4.727-5.245,6.016
		c-1.404,1.281-2.856,0.711-4.36-1.715c-1.647-2.631-2.416-5.777-2.305-9.445c0.071-3.234,0.685-6.666,1.84-10.299
		c1.154-3.631,2.728-7.588,4.717-11.872c1.667-3.667,3.415-7.166,5.24-10.496c1.826-3.328,3.152-5.722,3.979-7.179
		c1.077-1.851,2.245-1.852,3.505-0.001C174.778,482.007,174.645,484.573,173.12,487.854z M181.335,462.418
		c1.524,0.378,2.261,1.31,2.21,2.792c-0.051,1.485-0.551,3.04-1.501,4.666c-2.68,4.17-5.073,6.327-7.18,6.474
		c-2.162,0.15-2.371-2.338-0.627-7.464C176.004,464.081,178.371,461.927,181.335,462.418z"/>
	<path fill="#FFFFFF" d="M179.826,529.443c-0.95,1.627-2.477,1.275-4.579-1.055c-2.271-2.264-3.121-4.787-2.551-7.57
		c0.353-2.178,1.507-5.648,3.46-10.412c1.953-4.766,4.221-9.901,6.804-15.409c2.528-5.502,5.105-10.956,7.733-16.359
		c2.627-5.403,4.821-9.862,6.583-13.375c0.723-1.503,1.975-0.932,3.754,1.716c1.78,2.648,2.108,5.141,0.989,7.479
		c-0.784,1.562-1.614,3.355-2.491,5.379c-0.878,2.026-1.793,4.175-2.747,6.447c-0.689,1.718-1.396,3.488-2.122,5.314
		c-0.726,1.827-1.438,3.652-2.137,5.476c-0.204,0.499-0.192,0.809,0.04,0.926c0.231,0.119,0.498-0.021,0.802-0.419
		c2.478-3.725,5.012-7.332,7.606-10.822c2.591-3.49,5.036-6.687,7.334-9.592c5.915-7.354,9.339-11.145,10.273-11.371
		c2.317-0.698,4.159,0.639,5.525,4.015c1.364,3.375,1.751,5.678,1.16,6.902c-4.065,8.894-7.346,17.14-9.846,24.741
		c-1.612,4.848-2.938,9.664-3.979,14.443c-1.042,4.783-1.594,9.354-1.659,13.719c-0.125,3.236-0.502,4.744-1.125,4.518
		c-0.625-0.225-1.561-0.887-2.805-1.984c-1.339-1.252-2.658-2.721-3.959-4.406c-1.301-1.686-2.008-3.115-2.117-4.293
		c-0.792-5.002,1.041-12.959,5.499-23.873c2.527-6.094,6.103-13.715,10.727-22.864c0.333-0.723,0.398-1.158,0.197-1.306
		c-0.153-0.097-0.556,0.2-1.207,0.892c-4.544,5.214-9.374,11.227-14.489,18.041c-3.106,4.146-6.135,8.327-9.087,12.54
		c-2.952,4.215-5.312,8.133-7.083,11.754c-0.651,1.283-1.176,2.504-1.574,3.662c-0.397,1.156-0.773,2.205-1.125,3.145
		C180.617,527.771,180.017,529.105,179.826,529.443z"/>
	<path fill="#FFFFFF" d="M234.428,504.168c-0.557,3.859-0.28,6.799,0.829,8.82c2.196,4.314,6.049,4.477,11.558,0.486
		c4.365-3.801,8.226-7.676,11.584-11.623c2.863-3.213,5.771-6.805,8.729-10.78c2.956-3.971,5.521-7.622,7.697-10.949
		c0.852-1.135,1.45-1.231,1.797-0.287c0.225,1.114-0.446,2.911-2.008,5.388c-2.367,3.664-5.115,7.715-8.248,12.158
		c-3.133,4.442-7.191,9.636-12.175,15.579c-8.672,9.969-16.556,14.689-23.651,14.16c-3.313-0.199-5.803-1.938-7.472-5.211
		c-1.671-3.273-1.927-8.422-0.766-15.445c0.91-6.038,3.074-12.283,6.494-18.735c3.418-6.455,6.91-11.931,10.479-16.431
		c8.644-10.881,16.498-16.163,23.559-15.849c5.233,0.335,7.342,3.499,6.328,9.489c-1.079,3.682-2.385,6.92-3.922,9.717
		c-3.729,6.933-8.473,13.183-14.229,18.75c-5.443,5.061-10.468,8.129-15.074,9.202C235.007,502.783,234.505,503.303,234.428,504.168
		z M239.806,485.307c-1.66,3.56-2.958,7.016-3.9,10.361c-0.687,2.309,0.062,2.635,2.251,0.974
		c3.919-3.018,8.672-7.869,14.259-14.554c2.475-3.079,4.723-6.168,6.743-9.27c2.02-3.1,3.403-5.833,4.151-8.2
		c0.932-3.24,0.662-4.902-0.807-4.988c-1.469-0.087-3.508,0.958-6.117,3.13c-2.614,2.227-5.481,5.333-8.6,9.316
		C244.666,476.063,242.007,480.472,239.806,485.307z"/>
</g>
<g>
	<path fill="#FFFFFF" d="M300.637,437.557c1.4,0.333,2.217,1.218,2.451,2.651c0.133,1.234-0.184,2.735-0.951,4.502
		c-0.768,1.634-1.685,3.051-2.751,4.252c-0.534,0.601-2.176,2.435-4.928,5.503c-2.751,3.069-4.327,4.603-4.728,4.603
		c-0.934,0.067-1.584-0.633-1.951-2.101c-0.167-0.667,0.858-2.809,3.077-6.428c2.217-3.619,3.393-5.928,3.527-6.929
		c0.267-2.101,0.917-3.702,1.951-4.803C297.435,437.606,298.869,437.19,300.637,437.557z M312.343,437.557
		c1.467,0.333,2.284,1.218,2.451,2.651c0.133,1.234-0.184,2.735-0.95,4.502c-0.768,1.634-1.685,3.051-2.751,4.252
		c-0.534,0.601-2.176,2.435-4.928,5.503c-2.751,3.069-4.328,4.603-4.728,4.603c-0.934,0.067-1.584-0.633-1.951-2.101
		c-0.167-0.667,0.858-2.809,3.077-6.428c2.218-3.619,3.393-5.928,3.527-6.929c0.267-2.101,0.917-3.702,1.951-4.803
		C309.142,437.606,310.575,437.19,312.343,437.557z"/>
</g>
<g>
	<path fill="#FFFFFF" d="M91.328,465.038c-1.425-0.204-2.32-1.01-2.685-2.416c-0.245-1.216-0.067-2.74,0.534-4.571
		c0.615-1.698,1.398-3.193,2.35-4.486c0.477-0.647,1.944-2.625,4.402-5.932c2.459-3.308,3.887-4.98,4.286-5.016
		c0.924-0.153,1.636,0.485,2.135,1.914c0.228,0.647-0.597,2.875-2.474,6.683C98,455.02,97.041,457.427,97,458.437
		c-0.073,2.116-0.574,3.77-1.502,4.961C94.512,464.694,93.123,465.24,91.328,465.038z M79.671,466.11
		c-1.492-0.197-2.387-1.003-2.684-2.415c-0.246-1.217-0.068-2.74,0.533-4.571c0.614-1.698,1.397-3.193,2.35-4.486
		c0.477-0.647,1.944-2.624,4.402-5.931c2.458-3.309,3.887-4.98,4.286-5.017c0.924-0.152,1.636,0.486,2.136,1.914
		c0.228,0.648-0.597,2.876-2.474,6.683c-1.876,3.807-2.835,6.215-2.876,7.223c-0.073,2.116-0.574,3.771-1.503,4.961
		C82.854,465.768,81.465,466.313,79.671,466.11z"/>
</g>
</svg>
