<?xml version="1.0" encoding="utf-8"?>
<!-- Generator: Adobe Illustrator 15.0.0, SVG Export Plug-In . SVG Version: 6.00 Build 0)  -->
<!DOCTYPE svg PUBLIC "-//W3C//DTD SVG 1.1//EN" "http://www.w3.org/Graphics/SVG/1.1/DTD/svg11.dtd">
<svg version="1.1" id="Layer_1" xmlns="http://www.w3.org/2000/svg" xmlns:xlink="http://www.w3.org/1999/xlink" x="0px" y="0px"
	 width="200px" height="200px" viewBox="0 0 200 200" enable-background="new 0 0 200 200" xml:space="preserve">
<rect x="-0.009" fill="#231F20" width="200" height="200"/>
<g>
	<path fill="#FFFFFF" d="M61.378,133.451l10.733-15.275c6.467,6.743,16.511,12.522,29.17,12.522
		c10.869,0,15.962-4.816,15.962-10.183c0-15.96-52.837-4.815-52.837-39.352c0-15.273,13.209-27.932,34.812-27.932
		c14.586,0,26.693,4.403,35.775,12.796l-10.871,14.586c-7.429-6.88-17.337-10.045-26.693-10.045c-8.256,0-12.934,3.578-12.934,9.082
		c0,14.448,52.699,4.678,52.699,38.94c0,16.788-12.108,29.446-36.738,29.446C82.705,148.036,70.048,142.118,61.378,133.451z"/>
</g>
</svg>
